<mxfile host="app.diagrams.net" modified="2024-04-29T07:28:08.995Z" agent="Mozilla/5.0 (Windows NT 10.0; Win64; x64) AppleWebKit/537.36 (KHTML, like Gecko) Chrome/124.0.0.0 Safari/537.36" version="24.3.1" etag="gm-X4S9hpWDXujj3A_J3" type="github">
  <diagram name="Page-1" id="6Q7K45qTYE1qKmIsIAXn">
    <mxGraphModel>
      <root>
        <mxCell id="0" />
        <mxCell id="1" parent="0" />
      </root>
    </mxGraphModel>
  </diagram>
</mxfile>
